<svg id="Calque_1" data-name="Calque 1" xmlns="http://www.w3.org/2000/svg" viewBox="0 0 168.71 121.15"><defs><style>.cls-1{fill:#fef9e7;}</style></defs><title>discord-logo</title><path class="cls-1" d="M137.76,93.74c-18.07,9.35-37,14.54-57.62,13.44A114,114,0,0,1,36.56,95.59a13.57,13.57,0,0,0-4.45-1.53c5.38,7.14,13.06,10.73,21.83,14-3.26,3.94-6,7.67-9.22,10.88-1,1-3.4.79-5.09.56a69.37,69.37,0,0,1-10.7-2.2,70.09,70.09,0,0,1-11.58-4.54c-15.62-8.07-18.5-14.1-16.17-33A199.41,199.41,0,0,1,18.6,19.28,20.28,20.28,0,0,1,30.14,8.53c7-2.73,14-5.65,21.14-7.89,3.44-1.08,7.32-.77,11-.27L29,15.56l.69,1.68c1.58-.56,3.19-1,4.72-1.71,13.42-5.84,27.45-8.7,42.06-9.68,20.65-1.39,40.17,2.62,59.09,10.52l1,.36-.53-.8L106.9.89c.16-.12,1-1.38,1.84-1.32,14,1,26.92,5.2,38.39,13.45a5.94,5.94,0,0,1,1.9,2.1c11.67,24.59,19.27,50.21,20.15,77.64a13.27,13.27,0,0,1-4.24,10.61A55.34,55.34,0,0,1,132.74,119c-1.48.21-3,.38-4.44.7a14.32,14.32,0,0,0-2.4,1l-9-11.14,21.81-14.95.69-1.42ZM43.08,68.19c-.29,8.84,6.28,16.25,14.6,16.46,7.86.2,14.88-7.07,15-15.56S66.39,53.22,58.3,53C50,52.8,43.37,59.45,43.08,68.19Zm82,.64c0-9.05-6-15.73-14.34-15.82S96,59.64,96,68.4c0,9.12,6.43,16.28,14.67,16.23S125.1,77.76,125.13,68.83Z" transform="translate(-0.48 0.43)"/></svg>