<svg id="Calque_1" data-name="Calque 1" xmlns="http://www.w3.org/2000/svg" viewBox="0 0 410.86 410.88"><defs><style>.cls-1{fill:#fef9e7;}</style></defs><title>facebook-logo</title><path class="cls-1" d="M291.87,418.76c0-1.08,0-1.9,0-2.73q0-76.44,0-152.89c0-3.13,0-3.13,3.18-3.13h47.43c2.86,0,2.77,0,3.12-2.8,1.3-10.22,2.66-20.43,4-30.65q1.74-13.37,3.43-26.75a18.77,18.77,0,0,0,0-2.19H292c-.06-.81-.15-1.47-.15-2.13,0-13.66-.07-27.32.09-41a42.3,42.3,0,0,1,1.37-9.83c2.29-9,8.58-13.86,17.41-15.42a87,87,0,0,1,13.63-1.09c9.5-.16,19-.1,28.5,0,2.08,0,2.69-.6,2.68-2.71q-.13-25.38,0-50.75c0-2.08-.65-2.63-2.69-2.84a394.41,394.41,0,0,0-49.81-2c-18.26.48-35.1,5.4-49.4,17.28-12.47,10.35-19.73,23.88-23.51,39.45A112.7,112.7,0,0,0,227.25,153c0,13.87,0,27.73,0,41.6,0,.89,0,1.78,0,3h-2.61c-16.16,0-32.31,0-48.47,0-2.07,0-2.54.64-2.54,2.59q.09,28.7,0,57.41c0,2.08.73,2.55,2.65,2.54,16-.06,32,0,48,0,2.91,0,2.91,0,2.91,3q0,76.55,0,153.09v2.78H31.62c-12.1,0-21-7.39-23.22-19.27a21.5,21.5,0,0,1-.23-3.93q0-182.21-.08-364.43A23.07,23.07,0,0,1,31.53,8c46.73.18,93.46.07,140.2.07q111.6,0,223.19,0c7.28,0,13.46,2.17,18.34,7.64a23,23,0,0,1,5.68,15c0,.48,0,1,0,1.46q0,181.28,0,362.56c0,10-4,17.65-13.23,21.91a24.3,24.3,0,0,1-9.82,2.15c-34,.15-67.95.09-101.92.09C293.36,418.88,292.75,418.82,291.87,418.76Z" transform="translate(-8.09 -8.01)"/></svg>