<svg id="Calque_1" data-name="Calque 1" xmlns="http://www.w3.org/2000/svg" viewBox="0 0 300 300"><defs><style>.cls-1{fill:#8f2f24;}</style></defs><title>icon_evennement</title><path class="cls-1" d="M230,65.3v14a12.57,12.57,0,1,1-25.13,0v-14H91.8v14a12.57,12.57,0,1,1-25.13,0v-14H15V258H284.5V65.3Zm30.72,171.75H37.34V121.16H260.76Z"/><rect class="cls-1" x="195.13" y="143.5" width="22.34" height="22.34"/><rect class="cls-1" x="223.06" y="143.5" width="22.34" height="22.34"/><rect class="cls-1" x="223.06" y="171.42" width="22.34" height="22.34"/><rect class="cls-1" x="195.13" y="171.42" width="22.34" height="22.34"/><rect class="cls-1" x="139.28" y="143.5" width="22.34" height="22.34"/><rect class="cls-1" x="167.2" y="143.5" width="22.34" height="22.34"/><rect class="cls-1" x="167.2" y="171.42" width="22.34" height="22.34"/><rect class="cls-1" x="139.28" y="171.42" width="22.34" height="22.34"/><rect class="cls-1" x="83.42" y="143.5" width="22.34" height="22.34"/><rect class="cls-1" x="111.35" y="143.5" width="22.34" height="22.34"/><rect class="cls-1" x="111.35" y="171.42" width="22.34" height="22.34"/><rect class="cls-1" x="83.42" y="171.42" width="22.34" height="22.34"/><rect class="cls-1" x="195.13" y="199.35" width="22.34" height="22.34"/><rect class="cls-1" x="139.28" y="199.35" width="22.34" height="22.34"/><rect class="cls-1" x="167.2" y="199.35" width="22.34" height="22.34"/><rect class="cls-1" x="83.42" y="199.35" width="22.34" height="22.34"/><rect class="cls-1" x="54.1" y="171.42" width="22.34" height="22.34"/><rect class="cls-1" x="54.1" y="199.35" width="22.34" height="22.34"/><rect class="cls-1" x="111.35" y="199.35" width="22.34" height="22.34"/><path class="cls-1" d="M218.17,87.64a8.38,8.38,0,0,1-8.38-8.38V52.73a8.38,8.38,0,1,1,16.76,0V79.26A8.38,8.38,0,0,1,218.17,87.64Z"/><path class="cls-1" d="M78.53,87.64a8.38,8.38,0,0,1-8.38-8.38V52.73a8.38,8.38,0,0,1,16.76,0V79.26A8.38,8.38,0,0,1,78.53,87.64Z"/></svg>