<svg id="Calque_1" data-name="Calque 1" xmlns="http://www.w3.org/2000/svg" viewBox="0 0 300 300"><defs><style>.cls-1{fill:#8f2f24;}</style></defs><title>icon_creation</title><path class="cls-1" d="M102.41,189.87c4.44,3.13,5,8,5.74,13v6.38a6.11,6.11,0,0,0,6.16,6h66.33a6.11,6.11,0,0,0,6.16-6v-1.74c.68-6.63-.91-13.58,4.67-17.69,23.47-17.29,42.53-39,42.53-70.2,0-43.86-34.5-80.67-78.28-83.33A83.51,83.51,0,0,0,67,119.68C67,147.89,81,174.75,102.41,189.87Z"/><path class="cls-1" d="M181.36,226.17H115.71a6.37,6.37,0,0,0-6.35,6.35V241a27.62,27.62,0,0,0,25.42,27.44s0,.06,0,.09a8.5,8.5,0,0,0,8.47,8.47h8.47a8.5,8.5,0,0,0,8.47-8.47v0A27.61,27.61,0,0,0,186.8,241v-9.38A5.46,5.46,0,0,0,181.36,226.17Z"/></svg>