<svg id="Calque_1" data-name="Calque 1" xmlns="http://www.w3.org/2000/svg" viewBox="0 0 300 300"><defs><style>.cls-1{fill:#c1272d;}</style></defs><title>icon_actu</title><path class="cls-1" d="M269.72,86.8H281a6,6,0,0,1,6,6V245a0,0,0,0,1,0,0H269.63a0,0,0,0,1,0,0V86.89A.09.09,0,0,1,269.72,86.8Z"/><path class="cls-1" d="M249.16,54H26c-7.17,0-13,6.53-13,14.6V245H261.92V68.34C261.92,60.42,256.21,54,249.16,54ZM107.55,214.64H32.3V136.49h75.25Zm129.28-4.34H136.49v-13H236.83Zm0-30.39H136.49v-13H236.83ZM136.49,149.51v-13h71.39v13Zm106.13-39.07H32.3V93.07H242.62Z"/></svg>