<svg id="Calque_1" data-name="Calque 1" xmlns="http://www.w3.org/2000/svg" viewBox="0 0 300 300"><defs><style>.cls-1{fill:#c1272d;}</style></defs><title>icon_discord</title><path class="cls-1" d="M267,284.81c-20.86-18-40.68-36.12-60.84-54.33l6.48,22.9a6.3,6.3,0,0,1-3.24.34q-72.56,0-145.11,0c-16.5,0-28.09-11.6-28.09-28.16q0-88.13,0-176.27c0-16.64,11.39-28.23,28-28.25Q151.61,21,239,21c16.34,0,27.95,11.57,28,27.72q.06,116.84,0,233.68C267,283,267,283.58,267,284.81ZM180.54,182.89c2.54,3.14,5,6.11,7.36,9.12a2.88,2.88,0,0,0,2.7,1.23c14.76-.88,27.42-6.12,37.14-17.63a6.87,6.87,0,0,0,1.7-5c-.67-21.76-5.84-42.45-13.5-62.78-3.62-9.6-9.64-15.67-18.79-19.49a72.53,72.53,0,0,0-21.88-5.84c-1.45-.12-2.75.2-3.06,1.47-.36,1.47,1.35,1.23,2.15,1.5a107.64,107.64,0,0,1,21.46,9.76,36.06,36.06,0,0,1,7,5.06c-34.69-16.75-68.66-16-102.69-.5a76.5,76.5,0,0,1,15.53-9.39A114.64,114.64,0,0,1,131,84.6c.54-.16,1.32-.24,1.25-.9a1.46,1.46,0,0,0-1.44-1.21,12.78,12.78,0,0,0-1.72.12c-12.39,1.07-23.41,5.71-33.49,12.84a6,6,0,0,0-2,2.38C82.4,121,76,145.31,75.4,171.08a5.65,5.65,0,0,0,1.2,4c9.73,12,22.62,17.35,37.72,18.17a2,2,0,0,0,1.83-.6l8.13-10.11C111.45,177.13,105,172.7,102.7,168c33.42,18.32,66.92,19,100.54-.21C200.1,173,195.59,176,180.54,182.89Z"/><path class="cls-1" d="M141.24,145.5c-.29,9.36-6,15.66-13.9,15.43-7.29-.21-13.25-6.93-13.09-14.79.16-8.31,6.29-14.54,14.08-14.32A13.15,13.15,0,0,1,141.24,145.5Z"/><path class="cls-1" d="M189.25,146.23c.06,8.25-5.83,14.72-13.39,14.72s-13.34-6.4-13.38-14.46c0-8.3,5.78-14.68,13.4-14.67S189.19,138.08,189.25,146.23Z"/></svg>