<svg id="Calque_1" data-name="Calque 1" xmlns="http://www.w3.org/2000/svg" viewBox="0 0 300 300"><defs><style>.cls-1{fill:#641e16;}.cls-2{fill:#8f2f24;}</style></defs><title>icon_forum</title><path class="cls-1" d="M41,96.29H156a29.28,29.28,0,0,1,29.28,29.28V188.5A29.28,29.28,0,0,1,156,217.78H73c-11.29,11.38-25.67,23.71-39.09,28.86,0,0,12.47-9.18,18.62-28.86H41A29.28,29.28,0,0,1,11.77,188.5V125.57A29.28,29.28,0,0,1,41,96.29Z"/><path class="cls-2" d="M256.09,58.47H130.76A31.91,31.91,0,0,0,98.85,90.37V159a31.91,31.91,0,0,0,31.91,31.91h90.51c12.3,12.4,28,25.85,42.61,31.46,0,0-13.59-10-20.29-31.46h12.5A31.91,31.91,0,0,0,288,159V90.37A31.91,31.91,0,0,0,256.09,58.47Z"/></svg>