<svg id="Calque_1" data-name="Calque 1" xmlns="http://www.w3.org/2000/svg" viewBox="0 0 1772 539"><defs><style>.cls-1{fill:none;}.cls-2{fill:#fef9e7;}</style></defs><title>logo</title><polygon class="cls-1" points="304.308 124.321 367.021 180.671 304.308 201.076 304.308 124.321"/><path class="cls-2" d="M543.74512,430.31641,415.16943,381.18066l24.05273-14.17187-75.937-43.56348-.33447-3.04883L487.81592,372.8252l-19.3125,12.92773,74.49463,41.3916Zm-122.833-49.61816,106.81055,40.81934-64.00928-35.56543,18.85156-12.62109-101.81787-42.751,63.44873,36.39941Z"/><path class="cls-2" d="M130.22351,373.07855c40.13971-16.85394,79.88867-33.54382,119.63416-50.23218L236.323,223.0379c-36.2381-15.2157-72.50543-30.44366-109.09949-45.80884,6.44928-4.31726,12.66486-8.47809,19.082-12.7738-4.65265-2.58521-9.26666-5.14886-13.88373-7.71429-3.18945,4.8653-6.364,9.62756-9.66876,14.29352-3.022,4.26624-2.03369,6.95563,1.42511,10.11609,4.77747,4.36627,9.36426,8.9715,13.69293,13.77972a7.70542,7.70542,0,0,1,1.81317,5.75671c-2.31543,11.55188-5.11853,13.67456-16.75635,13.7113-4.49921.0141-9.01166.383-13.49249.13165-4.35388-.24451-6.4137,1.63879-7.15955,5.73535-1.74353,9.575-3.57977,19.1333-5.44812,28.68481-.77106,3.94055.22485,6.57483,4.31543,8.10205,6.06061,2.26282,11.89124,5.139,17.93866,7.44208,7.64166,2.91,3.34595,9.31512,4.40045,14.13489.86,3.92773-.53558,6.51758-4.5274,8.01489-6.06494,2.27478-11.92462,5.09332-17.96387,7.44336-3.59778,1.40027-4.94885,3.5802-4.18677,7.41815,1.94354,9.78571,3.81061,19.58942,5.502,29.42133.7536,4.37866,3.20154,5.57715,7.33142,5.45276,6.491-.19617,13.00476.2984,19.49109.04663,8.68207-.33685,7.28009,7.65369,9.73529,12.05927,1.09381,1.96191-.40991,6.51068-2.18976,8.70471-4.05768,5.00275-9.25873,9.06592-13.46423,13.96606-1.36865,1.59436-2.29535,5.33826-1.37335,6.84326,3.52246,5.75055,7.2168,11.3974,10.95728,17.02716l16.5116-9.17438C142.88837,381.55658,136.67279,377.39575,130.22351,373.07855Z"/><path class="cls-2" d="M250.09692,324.61072l-.41321-3.0473L127.59814,372.8252l19.3125,12.92773-74.498,41.39355-.75488,3.1748,128.58691-49.14062-24.05273-14.17187Zm-55.595,56.08752-106.811,40.81934,64.00977-35.56543-18.85156-12.62109,101.81738-42.751-63.44824,36.39941Z"/><polygon class="cls-2" points="540.745 119.991 412.17 169.127 436.222 183.299 379.798 215.668 379.258 218.86 441.196 183.328 417.912 169.608 524.721 128.791 460.713 164.356 479.565 176.976 379.216 219.11 378.723 222.029 484.816 177.482 465.503 164.554 539.997 123.163 540.745 119.991"/><path class="cls-2" d="M236.51794,224.47565l-.71283-5.25671-62.61322-35.9201L197.24414,169.127,68.65771,119.98682l.75635,3.1748,74.49658,41.39258-19.3125,12.92822Zm-151.826-95.68512L191.502,169.6084l-23.28369,13.71973,63.45068,36.3999L129.84912,176.97559,148.70068,164.356Z"/><path class="cls-2" d="M244.0697,181.20438,274.08615,386.1087l-.38037-.78741,32.8765,34.51788h-2.549l32.25217-35.10529-.60425,1.25092,29.39041-205.74472.95724,2.64832-62.06616-57.07056h2.69022Zm-2.95108-1.06671,62.84387-57.314,1.3197-1.20355,1.37082,1.20355,63.36072,55.62982,1.1962,1.05023-.2388,1.59842L340.26068,386.65393l-.11029.73834-.49411.51288-33.07385,34.33228-1.29764,1.347-1.25171-1.347-32.44952-34.91962-.31512-.33911-.0654-.44867Z"/><polygon class="cls-2" points="305.308 170.991 307.973 197.726 335.393 191.254 307.973 203.817 305.308 231.161 301.577 203.817 275.223 191.254 301.577 197.726 305.308 170.991"/><polygon class="cls-2" points="304.308 201.076 304.308 382.893 306.999 399.31 321.597 392.878 307.113 402.922 304.308 413.158 301.753 403.061 287.976 393.286 271.645 386.319 304.308 421.038 336.971 386.319 367.021 180.671 304.308 201.076"/><polygon class="cls-2" points="301.77 399.17 293.238 395.531 301.77 399.17 301.77 399.17"/><path class="cls-2" d="M471.29572,147.86951c-4.38367-5.43756-6.4295-4.58392-16.11469-.66077-16.28619,6.597-16.28619,6.597-28.772-6.22522,3.22369-7.72461,6.20935-15.10474,9.38818-22.40021,1.60376-3.68152,1.5238-6.28033-2.37311-8.73724-8.4295-5.31384-16.40759-11.34967-24.89435-16.56226-1.85333-1.13831-5.90375-1.10669-7.49249.17822-5.00531,4.04822-9.0719,9.24585-14.01562,13.38513-2.24921,1.8833-6.74115,4.07861-8.41455,3.08868-4.7005-2.78131-13.39539-1.20111-12.83929-10.72949a132.31108,132.31108,0,0,0-.47491-20.21436c-.19147-2.00464-2.41547-5.05487-4.20258-5.463-10.2016-2.33215-20.51605-4.27826-30.884-5.67981-2.017-.27271-5.42285,1.90637-6.48547,3.87427A128.95142,128.95142,0,0,0,315.9812,89.548c-2.93134,8.18457-9.67328,3.59863-14.66656,4.81934-4.31329,1.0545-6.30554-1.39856-7.76483-5.00909-2.98181-7.37457-6.14868-14.67474-9.66138-23.00635-12.0614,2.3877-23.80176,4.5022-35.39984,7.22455-1.83069.42957-4.10724,3.50409-4.30042,5.534a120.95616,120.95616,0,0,0-.39581,20.20581c.60779,8.29181-6.61755,7.38092-10.765,9.999-3.39087,2.14063-6.54749,2.53687-9.76654-1.3075a114.56932,114.56932,0,0,0-14.29132-14.20886c-1.63751-1.37079-5.51306-1.82385-7.38483-.83734a164.7767,164.7767,0,0,0-17.72107,11.15442c-12.21356,8.58118-12.14349,8.674-6.48419,22.80328.55695,1.39044,1.03436,2.81293,1.53491,4.22565,4.04993,11.43176,4.14954,11.557-5.62207,19.41455a8.37344,8.37344,0,0,1-6.77527,1.128c-8.19781-2.70605-16.20544-5.9892-24.75031-9.239-1.21362,1.83771-2.39069,3.64386-3.57013,5.45111q27.95984,10.685,56.17651,21.4682c-7.99823,4.71283-15.71753,9.26129-23.668,13.94592,22.09485,12.67523,43.738,25.09143,65.31189,37.46783l-6.81683-50.26916L304.00793,108l83.41742,62.51227-7.89734,46.752c19.546-11.21307,39.17841-22.47571,59.18079-33.95062-7.9505-4.68463-15.6698-9.23309-23.668-13.94592Q443.32892,158.55722,471.29572,147.86951Zm-229.884,4.16321c-11.86182-6.70123-23.72369-13.4024-35.70312-20.17,3.38721-1.51526,6.65167-2.97565,10.022-4.4834-6.853-5.5719-13.547-11.01465-20.24109-16.45734l.04041-.12555c12.48145,6.29419,24.96289,12.58844,37.62958,18.97607-4.06561,1.64252-7.98938,3.22778-12.0307,4.86047,6.88916,5.85651,13.61182,11.57147,20.33447,17.28638Zm132.40063,0-.05151-.1134c6.72266-5.7149,13.44531-11.42987,20.33447-17.28638-4.04132-1.63269-7.96509-3.218-12.03064-4.86047,12.66663-6.38763,25.14807-12.68188,37.62952-18.97607l.04041.12555c-6.69409,5.44269-13.38812,10.88544-20.24109,16.45734l10.022,4.4834C397.53607,138.63031,385.67426,145.33148,373.81238,152.03271Z"/><path class="cls-2" d="M497.07831,289.69678c-9.47156-3.61652-12.32684-8.61969-11.32959-18.09552.44922-4.27264,1.87042-6.12433,5.49725-7.53015,6.26617-2.42871,12.52258-4.957,18.5097-7.98407,1.63794-.82794,3.40448-3.70331,3.21558-5.43231a147.02716,147.02716,0,0,0-3.44513-19.1239c-4.16833-16.93591-4.31671-17.68732-21.7099-16.81836-9.69513.48431-14.40161-2.58856-17.32489-11.49036-1.41351-4.30511-1.10406-6.62994,2.07306-9.60065,5.90247-5.51947,11.3985-11.47406,17.3172-17.506-4.47028-7.01636-8.32544-13.48553-12.43744-19.62561-4.7663,2.64832-9.53162,5.29614-14.33575,7.96545,6.41718,4.29572,12.63275,8.45654,19.082,12.7738-34.61542,14.53436-68.938,28.9458-103.2207,43.34052l-30.08118,178.079-44.88062,43.76337L260.137,398.64856l-10.22131-75.37469c-25.19293,14.45251-50.394,28.90979-76.21057,43.72009,7.9505,4.68469,15.6698,9.23315,23.668,13.94592q-29.65118,11.33139-58.95374,22.52954,1.70169,2.54791,3.3999,5.10083c8.9176-3.40454,16.82306-6.438,24.7439-9.43225,1.34045-.50653,3.425-1.6358,4.00934-1.13312,3.94781,3.39728,8.1311,6.77954,11.03772,10.99451,1.07794,1.56311-.85236,5.43488-1.80426,8.114-1.92,5.40326-4.50769,10.60382-5.98663,16.11182-.57062,2.12689.32141,5.87292,1.92474,7.14331,6.82617,5.40875,14.28448,10.01013,21.28717,15.20947,6.07727,4.51245,10.96674,4.326,15.81085-1.95258,3.01727-3.911,7.24249-6.87146,10.44873-10.6615,2.80737-3.31909,5.74683-3.882,9.06378-1.56018,4.19269,2.93481,12.04169,1.61145,11.40869,10.34143a100.226,100.226,0,0,0,.39624,19.45007c.29706,2.40088,2.96082,5.90375,5.14673,6.43671,9.91913,2.4176,20.02155,4.17737,30.1377,5.61011,1.90338.26929,5.16431-1.502,6.08667-3.23993a107.80458,107.80458,0,0,0,7.68445-17.8147c2.754-8.69366,9.6665-4.65778,14.96716-5.62378,4.58765-.83606,6.76929,1.425,8.13367,5.62164,1.61444,4.96722,3.991,9.6814,5.7533,14.60675,1.95166,5.45453,4.96552,7.93536,11.195,6.41583,8.715-2.12561,17.58386-3.69305,26.451-5.09418,4.77063-.754,6.00421-3.25922,5.89307-7.65753-.16455-6.48975.01886-12.99707.31763-19.48511.0816-1.77045.58429-4.08459,1.78241-5.14893,7.6109-6.76031,14.69611-6.26788,21.82788,1.00964,3.31519,3.38318,6.48633,7.08258,10.36963,9.66559,2.16235,1.43835,6.41278,2.16968,8.41577.99426,8.57092-5.0318,16.51056-11.1275,24.98236-16.34479,3.93542-2.424,4.05212-4.8988,2.4834-8.62952-3.17456-7.55023-6.08752-15.21069-9.12061-22.85669,2.54449-2.55438,5.01251-4.683,7.05652-7.16168,3.39429-4.11536,6.72656-5.21558,11.97461-2.59839,6.84241,3.4126,14.27,5.6524,22.134,8.65985q2.28241-3.4661,4.51093-6.86871-27.02948-10.32953-54.302-20.75183c7.99823-4.71277,15.71753-9.26123,23.668-13.94592-26.17175-15.0141-51.71118-29.66541-77.25055-44.31671l-.03375-.30609c40.12262,16.84674,80.2453,33.69354,120.76587,50.7074-6.44922,4.3172-12.6648,8.478-19.082,12.7738,4.08453,2.26953,8.13171,4.51825,12.18854,6.77234,2.768-4.2063,5.52454-8.3736,8.31262-12.5119,2.7309-4.05334,1.92645-7.2865-1.40283-10.476-4.49536-4.30731-8.91931-8.69537-13.21637-13.19922-1.26691-1.32806-2.89075-3.19983-2.83044-4.76422a15.80021,15.80021,0,0,1,15.99121-15.15649c21.37653-.02393,21.37653-.02393,25.50555-20.88538C514.31256,297.15851,514.60663,296.38916,497.07831,289.69678ZM233.15948,420.59216c-12.66669,6.38763-25.14813,12.68188-37.62958,18.97607l-.04041-.12555c6.69409-5.44269,13.38812-10.88544,20.24109-16.45734-3.3703-1.50775-6.63477-2.96808-10.022-4.4834,11.97943-6.76764,23.84131-13.46881,35.70313-20.17l.05151.1134c-6.72266,5.715-13.44531,11.42987-20.33447,17.28638C225.17011,417.36438,229.09387,418.94965,233.15948,420.59216ZM370.355,398.33191c11.86182,6.70123,23.72369,13.4024,35.70313,20.17-3.38721,1.51532-6.65167,2.97565-10.022,4.4834,6.853,5.5719,13.547,11.01465,20.24109,16.45734l-.04041.12555c-12.48145-6.29419-24.96289-12.58844-37.62952-18.97607,4.06555-1.64252,7.98932-3.22778,12.03064-4.86047-6.88916-5.85651-13.61182-11.57141-20.33447-17.28638Z"/><path class="cls-2" d="M604.75586,238.41553a40.117,40.117,0,0,1,39.999-39.99951c14.3999,0,25.3999,8.2002,31.59961,17.7998,6.3999-9.59961,17.3999-17.7998,31.7998-17.7998a40.117,40.117,0,0,1,39.999,39.99951V340.41406H731.55371V238.41553a23.39966,23.39966,0,0,0-46.79932,0V340.41406H668.15479V238.41553a23.559,23.559,0,0,0-23.3999-23.39941,23.30233,23.30233,0,0,0-23.39941,23.39941V340.41406H604.75586Z"/><path class="cls-2" d="M782.93066,300.33838a28.18983,28.18983,0,0,1-20.65039-27.12549V242.41211h14.52539v30.80078a13.4751,13.4751,0,1,0,26.9502,0V242.41211h14.52539v30.80078a28.14311,28.14311,0,0,1-20.8252,27.12549v40.07568H782.93066Z"/><path class="cls-2" d="M844.18066,312.41406v1.39941a13.37059,13.37059,0,0,0,13.4751,13.47559c6.8252,0,13.4751-5.0752,13.4751-14.70117,0-9.44922-7.1748-12.59961-13.4751-13.64941-12.6001-2.27539-28.00049-8.5752-28.00049-28.70068,0-18.55029,13.8252-29.22559,28.00049-29.22559a28.08265,28.08265,0,0,1,28.00049,28.00049v1.40039H871.13086V269.0127a13.41,13.41,0,0,0-13.6499-13.4751c-6.8252,0-13.30029,5.0752-13.30029,14.7002,0,9.4502,7,12.6001,13.4751,13.65039,12.6001,2.2749,28.00049,8.5752,28.00049,28.69971,0,18.55078-13.8252,29.22656-28.00049,29.22656a28.08307,28.08307,0,0,1-28.00049-28.001v-1.39941Z"/><path class="cls-2" d="M908.92871,256.9375H888.27832V242.41211h56.001V256.9375H923.4541v83.47656H908.92871Z"/><path class="cls-2" d="M953.90186,242.41211h14.52588v98.002H953.90186Z"/><path class="cls-2" d="M1038.42676,313.81348a28.00049,28.00049,0,1,1-56.001,0V269.0127a28.00049,28.00049,0,0,1,56.001,0v1.40039h-14.52539V269.0127a13.4751,13.4751,0,1,0-26.9502,0v44.80078a13.4751,13.4751,0,1,0,26.9502,0v-1.39941h14.52539Z"/><path class="cls-2" d="M1078.22461,200.416h16.59961v139.998h-16.59961Z"/><path class="cls-2" d="M1109.82324,269.0127a28.00049,28.00049,0,0,1,56.001,0v71.40137h-14.52539V269.0127a13.4751,13.4751,0,1,0-26.95019,0v71.40137h-14.52539Z"/><path class="cls-2" d="M1179.82227,242.41211h28.001a28.08328,28.08328,0,0,1,28,28.001v42.001a28.08244,28.08244,0,0,1-28,28h-28.001Zm28.001,83.47656a13.37027,13.37027,0,0,0,13.47461-13.47461v-42.001a13.37048,13.37048,0,0,0-13.47461-13.47559h-13.47559v68.95117Z"/><path class="cls-2" d="M1249.82129,313.81348V242.41211h14.52539v71.40137a13.4751,13.4751,0,1,0,26.95019,0V242.41211h14.52539v71.40137a28.00049,28.00049,0,1,1-56.001,0Z"/><path class="cls-2" d="M1332.5957,312.41406v1.39941a13.3707,13.3707,0,0,0,13.47559,13.47559c6.8252,0,13.47461-5.0752,13.47461-14.70117,0-9.44922-7.1748-12.59961-13.47461-13.64941-12.60059-2.27539-28.001-8.5752-28.001-28.70068,0-18.55029,13.8252-29.22559,28.001-29.22559a28.08286,28.08286,0,0,1,28,28.00049v1.40039H1359.5459V269.0127a13.41041,13.41041,0,0,0-13.65039-13.4751c-6.8252,0-13.29981,5.0752-13.29981,14.7002,0,9.4502,7,12.6001,13.47559,13.65039,12.59961,2.2749,28,8.5752,28,28.69971,0,18.55078-13.82519,29.22656-28,29.22656a28.08349,28.08349,0,0,1-28.001-28.001v-1.39941Z"/><path class="cls-2" d="M1397.34375,256.9375h-20.65039V242.41211h56.001V256.9375h-20.8252v83.47656h-14.52539Z"/><path class="cls-2" d="M1442.31641,242.41211h28.001a28.197,28.197,0,0,1,28,28.001c0,9.2749-4.375,16.2749-10.84961,21.5249,6.2998,5.9502,9.09961,11.8999,9.09961,19.60107v28.875H1482.042v-28.875a12.88208,12.88208,0,0,0-12.95019-12.77588h-12.25v41.65088h-14.52539Zm28.001,41.82617a13.56024,13.56024,0,0,0,13.47461-13.8252,13.71015,13.71015,0,0,0-13.47461-13.47559H1456.8418v27.30078Z"/><path class="cls-2" d="M1530.3418,300.33838a28.18926,28.18926,0,0,1-20.65039-27.12549V242.41211h14.52539v30.80078a13.4751,13.4751,0,1,0,26.95019,0V242.41211h14.52539v30.80078a28.14311,28.14311,0,0,1-20.8252,27.12549v40.07568H1530.3418Z"/><path class="cls-2" d="M1404.813,482.68507a4.76994,4.76994,0,0,1-1.42333-3.51076V414.93471a4.72978,4.72978,0,0,1,1.42333-3.55833A4.85837,4.85837,0,0,1,1408.32374,410h22.67879a24.54178,24.54178,0,0,1,11.29152,2.51492A18.83084,18.83084,0,0,1,1452.827,429.737a14.52137,14.52137,0,0,1-2.51492,8.35034,18.43508,18.43508,0,0,1-6.87944,5.97812,16.96861,16.96861,0,0,1,13.854,17.64895,22.02011,22.02011,0,0,1-3.08389,11.57693,21.0505,21.0505,0,0,1-8.63513,7.97041,27.15532,27.15532,0,0,1-12.57277,2.84666h-24.67109A4.76994,4.76994,0,0,1,1404.813,482.68507Zm26.18956-42.22552q5.597,0,8.96687-2.75153,3.36651-2.75122,3.36868-7.971,0-5.217-3.36868-7.92284-3.36929-2.70489-8.96687-2.70458h-17.7447v21.35Zm1.99229,34.53928q6.64129,0,10.72256-3.46319,4.07911-3.46289,4.08034-9.82124,0-5.88236-4.03277-9.01444-4.03463-3.13114-10.77013-3.13084h-19.737v25.4297Z"/><path class="cls-2" d="M1473.41709,482.68507a4.76994,4.76994,0,0,1-1.42333-3.51076V414.93471a4.72978,4.72978,0,0,1,1.42333-3.55833A4.85837,4.85837,0,0,1,1476.92785,410h42.88961a4.84967,4.84967,0,0,1,3.51138,1.28125,4.47153,4.47153,0,0,1,1.3282,3.36868,4.199,4.199,0,0,1-1.3282,3.226,4.95545,4.95545,0,0,1-3.51138,1.23368h-37.95552v23.0581h27.23358a4.888,4.888,0,0,1,3.46319,1.28063,4.5832,4.5832,0,0,1,0,6.5477,4.888,4.888,0,0,1-3.46319,1.28063h-27.23358v23.7222h37.95552a4.96373,4.96373,0,0,1,3.51138,1.23368,4.20222,4.20222,0,0,1,1.3282,3.22659,4.46825,4.46825,0,0,1-1.3282,3.36806,4.84709,4.84709,0,0,1-3.51138,1.28125h-42.88961A4.76994,4.76994,0,0,1,1473.41709,482.68507Z"/><path class="cls-2" d="M1588.9442,411.28125a4.556,4.556,0,0,1-3.27354,7.82833h-20.40109V479.1743a4.93459,4.93459,0,1,1-9.86881,0V419.10957h-20.49561a4.556,4.556,0,1,1,0-9.10957h50.76551A4.43408,4.43408,0,0,1,1588.9442,411.28125Z"/><path class="cls-2" d="M1649.43643,479.26882a4.65875,4.65875,0,0,1-1.42333,3.41624,4.7719,4.7719,0,0,1-3.51076,1.42333,4.98481,4.98481,0,0,1-2.704-.8068,4.56994,4.56994,0,0,1-1.85083-2.22952l-5.3134-13.28443H1600.5687l-5.40854,13.28443a5.24334,5.24334,0,0,1-1.89778,2.22952,4.75869,4.75869,0,0,1-2.657.8068,4.53537,4.53537,0,0,1-3.46319-1.4709,4.89876,4.89876,0,0,1-1.37576-3.46319,6.17137,6.17137,0,0,1,.47444-2.18257l26.66338-63.67063A4.81613,4.81613,0,0,1,1617.55416,410a4.60757,4.60757,0,0,1,4.6493,3.32111l26.75852,63.86028A6.0311,6.0311,0,0,1,1649.43643,479.26882ZM1603.8898,459.627H1631.313l-13.56922-33.78Z"/></svg>