<svg id="Calque_1" data-name="Calque 1" xmlns="http://www.w3.org/2000/svg" viewBox="0 0 414.82 423.82"><defs><style>.cls-1{fill:#fef9e7;}.cls-2{fill:none;stroke:#fef9e7;stroke-miterlimit:10;stroke-width:13px;}</style></defs><title>twitter-logo</title><path class="cls-1" d="M335.29,133a53.65,53.65,0,0,0,9.46-1.38,127.36,127.36,0,0,0,25.85-8c.22-.1.46-.16.81-.28,0,.65-.39,1-.65,1.35a130.16,130.16,0,0,1-30.09,31.08,2.38,2.38,0,0,0-1.1,2.29,174.42,174.42,0,0,1-.55,22.59,187.53,187.53,0,0,1-6.88,35.87,190.27,190.27,0,0,1-39.9,72.8,172.88,172.88,0,0,1-78.79,51.5,184.77,184.77,0,0,1-34.62,7.34,195.63,195.63,0,0,1-32.91,1.13,183.06,183.06,0,0,1-88.76-28c-.26-.16-.63-.25-.76-.71,35.21,3.46,66.92-5.35,95.07-26.83a65.74,65.74,0,0,1-37.17-13,64.7,64.7,0,0,1-23.08-32.19,68.28,68.28,0,0,0,14.58,1.09,63.66,63.66,0,0,0,14.54-2.18c-19.05-4.4-33.54-14.75-43.3-31.45a63.11,63.11,0,0,1-8.54-33A64.94,64.94,0,0,0,97.69,191c-17.2-12.37-27-28.82-28.49-49.88a63.15,63.15,0,0,1,8.61-36.65c2.7,3.18,5.29,6.23,8,9.15a184.48,184.48,0,0,0,54.73,40.45,182.42,182.42,0,0,0,46.23,15.22,185.1,185.1,0,0,0,23.41,2.84c.92.05,1.29,0,1.06-1.14-3.94-20.23.25-38.6,13.28-54.62a61.9,61.9,0,0,1,40.89-23.07c21.67-2.91,40.28,3.62,55.8,19a1.78,1.78,0,0,0,1.87.58,130.58,130.58,0,0,0,38.74-14.75,1.69,1.69,0,0,1,1.11-.42,26.21,26.21,0,0,1-1.81,5.07,64.82,64.82,0,0,1-24.89,29.45c-.33.22-.8.29-.93.77l-.23,0,.08.11Z" transform="translate(-6.5 -1.09)"/><ellipse class="cls-2" cx="207.41" cy="211.91" rx="200.91" ry="205.41"/></svg>